<?xml version="1.0" encoding="UTF-8"?>
<svg id="svg6" width="842pt" height="585pt" version="1.1" viewBox="0 0 842 585" xmlns="http://www.w3.org/2000/svg" xmlns:cc="http://creativecommons.org/ns#" xmlns:dc="http://purl.org/dc/elements/1.1/" xmlns:rdf="http://www.w3.org/1999/02/22-rdf-syntax-ns#">
 <metadata id="metadata1">
  <rdf:RDF>
   <cc:Work rdf:About="">
    <dc:format>image/svg+xml</dc:format>
    <dc:type rdf:resource="http://purl.org/dc/dcmitype/StillImage"/>
    <dc:title>Nagios Overview</dc:title>
   </cc:Work>
  </rdf:RDF>
 </metadata>
 <title id="title4">Nagios Overview</title>
 <text id="text817" x="420.85938" y="67.638695" fill="#000000" font-family="'Linux Libertine O'" font-size="72px" letter-spacing="0px" stroke-width=".75px" text-align="center" text-anchor="middle" word-spacing="0px" style="font-feature-settings:normal;font-variant-caps:normal;font-variant-ligatures:normal;font-variant-numeric:normal;line-height:18.75px" xml:space="preserve"><tspan id="tspan815" x="420.85938" y="67.638695" font-family="'Linux Libertine O'" font-size="72px" stroke-width=".75px" text-align="center" text-anchor="middle" style="font-feature-settings:normal;font-variant-caps:normal;font-variant-ligatures:normal;font-variant-numeric:normal">Nagios Overview</tspan></text>
 <rect id="rect819" x="535.01" y="108.99" width="60" height="386.43" color="#000000" fill="#3bb9c0" fill-rule="evenodd"/>
 <rect id="rect821" x="264.84" y="108.99" width="60" height="386.43" color="#000000" fill="#3bb9c0" fill-rule="evenodd"/>
 <rect id="rect823" x="686.86" y="108.99" width="60" height="386.43" color="#000000" fill="#3bb9c0" fill-rule="evenodd"/>
 <text id="text827" x="565.04303" y="516.50891" fill="#000000" font-family="'Linux Libertine O'" font-size="24px" letter-spacing="0px" stroke-width=".75px" text-align="center" text-anchor="middle" word-spacing="0px" style="font-feature-settings:normal;font-variant-caps:normal;font-variant-ligatures:normal;font-variant-numeric:normal;line-height:18.75px" xml:space="preserve"><tspan id="tspan825" x="565.04303" y="516.50891" font-family="'Linux Libertine O'" font-size="24px" stroke-width=".75px" text-align="center" text-anchor="middle" style="font-feature-settings:normal;font-variant-caps:normal;font-variant-ligatures:normal;font-variant-numeric:normal">Nagios Server</tspan></text>
 <text id="text831" x="717.32129" y="517.46893" fill="#000000" font-family="'Linux Libertine O'" font-size="24px" letter-spacing="0px" stroke-width=".75px" text-align="center" text-anchor="middle" word-spacing="0px" style="font-feature-settings:normal;font-variant-caps:normal;font-variant-ligatures:normal;font-variant-numeric:normal;line-height:18.75px" xml:space="preserve"><tspan id="tspan829" x="717.32129" y="517.46893" font-family="'Linux Libertine O'" font-size="24px" stroke-width=".75px" text-align="center" text-anchor="middle" style="font-feature-settings:normal;font-variant-caps:normal;font-variant-ligatures:normal;font-variant-numeric:normal">Web Interface</tspan></text>
 <text id="text835" x="211.65334" y="562.70081" fill="#000000" font-family="'Linux Libertine O'" font-size="24px" letter-spacing="0px" stroke-width=".75px" text-align="center" text-anchor="middle" word-spacing="0px" style="font-feature-settings:normal;font-variant-caps:normal;font-variant-ligatures:normal;font-variant-numeric:normal;line-height:18.75px" xml:space="preserve"><tspan id="tspan833" x="211.65334" y="562.70081" font-family="'Linux Libertine O'" font-size="24px" stroke-width=".75px" text-align="center" text-anchor="middle" style="font-feature-settings:normal;font-variant-caps:normal;font-variant-ligatures:normal;font-variant-numeric:normal">Remote Machine</tspan></text>
 <rect id="rect837" x="36.745" y="93.53" width="349.15" height="440.98" color="#000000" fill="none" stroke="#dd2cea" stroke-dasharray="6.00000018, 6.00000018" stroke-linecap="round" stroke-linejoin="round" stroke-width="2"/>
 <path id="path889" d="m512.69 188.91h39.664" fill="none" stroke="#3bb9c0" stroke-width="4"/>
 <rect id="rect839" x="448.63" y="93.53" width="349.15" height="440.98" color="#000000" fill="none" stroke="#dd2cea" stroke-dasharray="6.00000018, 6.00000018" stroke-linecap="round" stroke-linejoin="round" stroke-width="2"/>
 <text id="text843" x="294.8692" y="516.50891" fill="#000000" font-family="'Linux Libertine O'" font-size="24px" letter-spacing="0px" stroke-width=".75px" text-align="center" text-anchor="middle" word-spacing="0px" style="font-feature-settings:normal;font-variant-caps:normal;font-variant-ligatures:normal;font-variant-numeric:normal;line-height:18.75px" xml:space="preserve"><tspan id="tspan841" x="294.8692" y="516.50891" font-family="'Linux Libertine O'" font-size="24px" stroke-width=".75px" text-align="center" text-anchor="middle" style="font-feature-settings:normal;font-variant-caps:normal;font-variant-ligatures:normal;font-variant-numeric:normal">NRPE Server</tspan></text>
 <text id="text847" x="623.50604" y="562.70081" fill="#000000" font-family="'Linux Libertine O'" font-size="24px" letter-spacing="0px" stroke-width=".75px" text-align="center" text-anchor="middle" word-spacing="0px" style="font-feature-settings:normal;font-variant-caps:normal;font-variant-ligatures:normal;font-variant-numeric:normal;line-height:18.75px" xml:space="preserve"><tspan id="tspan845" x="623.50604" y="562.70081" font-family="'Linux Libertine O'" font-size="24px" stroke-width=".75px" text-align="center" text-anchor="middle" style="font-feature-settings:normal;font-variant-caps:normal;font-variant-ligatures:normal;font-variant-numeric:normal">Main Machine</tspan></text>
 <path id="path849" d="m585.92 476.32h120.03" fill="none" stroke="#3bb9c0" stroke-width="4"/>
 <path id="path891" d="m512.99 137.21h39.664" fill="none" stroke="#3bb9c0" stroke-width="4"/>
 <g id="g860" transform="translate(61.811 1.5809)">
  <rect id="rect851" x="400.99" y="120.37" width="60" height="31.824" color="#000000" fill="#3bb9c0" fill-rule="evenodd"/>
  <text id="text855" x="430.07367" y="139.92377" fill="#000000" font-family="'Linux Libertine O'" font-size="18px" letter-spacing="0px" stroke-width=".75px" text-align="center" text-anchor="middle" word-spacing="0px" style="font-feature-settings:normal;font-variant-caps:normal;font-variant-ligatures:normal;font-variant-numeric:normal;line-height:18.75px" xml:space="preserve"><tspan id="tspan853" x="430.07367" y="139.92377" font-family="'Linux Libertine O'" font-size="18px" stroke-width=".75px" text-align="center" text-anchor="middle" style="font-feature-settings:normal;font-variant-caps:normal;font-variant-ligatures:normal;font-variant-numeric:normal">Plugin</tspan></text>
 </g>
 <path id="path984" d="m513.29 395.68h39.664" fill="none" stroke="#3bb9c0" stroke-width="4"/>
 <g id="g868" transform="translate(61.811 53.144)">
  <rect id="rect862" x="400.99" y="120.37" width="60" height="31.824" color="#000000" fill="#3bb9c0" fill-rule="evenodd"/>
  <text id="text866" x="430.07367" y="139.92377" fill="#000000" font-family="'Linux Libertine O'" font-size="18px" letter-spacing="0px" stroke-width=".75px" text-align="center" text-anchor="middle" word-spacing="0px" style="font-feature-settings:normal;font-variant-caps:normal;font-variant-ligatures:normal;font-variant-numeric:normal;line-height:18.75px" xml:space="preserve"><tspan id="tspan864" x="430.07367" y="139.92377" font-family="'Linux Libertine O'" font-size="18px" stroke-width=".75px" text-align="center" text-anchor="middle" style="font-feature-settings:normal;font-variant-caps:normal;font-variant-ligatures:normal;font-variant-numeric:normal">Plugin</tspan></text>
 </g>
 <path id="path883" d="m513.59 343.99h39.664" fill="none" stroke="#3bb9c0" stroke-width="4"/>
 <path id="path887" d="m512.39 240.6h39.664" fill="none" stroke="#3bb9c0" stroke-width="4"/>
 <g id="g876" transform="translate(61.811 104.71)">
  <rect id="rect870" x="400.99" y="120.37" width="60" height="31.824" color="#000000" fill="#3bb9c0" fill-rule="evenodd"/>
  <text id="text874" x="430.07367" y="139.92377" fill="#000000" font-family="'Linux Libertine O'" font-size="18px" letter-spacing="0px" stroke-width=".75px" text-align="center" text-anchor="middle" word-spacing="0px" style="font-feature-settings:normal;font-variant-caps:normal;font-variant-ligatures:normal;font-variant-numeric:normal;line-height:18.75px" xml:space="preserve"><tspan id="tspan872" x="430.07367" y="139.92377" font-family="'Linux Libertine O'" font-size="18px" stroke-width=".75px" text-align="center" text-anchor="middle" style="font-feature-settings:normal;font-variant-caps:normal;font-variant-ligatures:normal;font-variant-numeric:normal">Plugin</tspan></text>
 </g>
 <path id="path885" d="m512.09 292.3h39.664" fill="none" stroke="#3bb9c0" stroke-width="4"/>
 <g id="g884" transform="translate(61.811 156.27)">
  <rect id="rect878" x="400.99" y="120.37" width="60" height="31.824" color="#000000" fill="#3bb9c0" fill-rule="evenodd"/>
  <text id="text882" x="430.07367" y="139.92377" fill="#000000" font-family="'Linux Libertine O'" font-size="18px" letter-spacing="0px" stroke-width=".75px" text-align="center" text-anchor="middle" word-spacing="0px" style="font-feature-settings:normal;font-variant-caps:normal;font-variant-ligatures:normal;font-variant-numeric:normal;line-height:18.75px" xml:space="preserve"><tspan id="tspan880" x="430.07367" y="139.92377" font-family="'Linux Libertine O'" font-size="18px" stroke-width=".75px" text-align="center" text-anchor="middle" style="font-feature-settings:normal;font-variant-caps:normal;font-variant-ligatures:normal;font-variant-numeric:normal">Plugin</tspan></text>
 </g>
 <g id="g900" transform="translate(61.811 259.4)">
  <path id="rect894" d="m400.99 120.37h60v31.824h-60v-31.824z" color="#000000" fill="#3bb9c0" fill-rule="evenodd"/>
  <path id="text898" d="m409.52 129.95c1.0617-2.8749 5.296-0.0191 3.9521 2.5224 0.0707 1.7024-4.131 2.7639-3.9521 0.85662v-3.379zm-1.53 0.558c-0.0379 2.698 0.0803 5.4048-0.0675 8.0966-0.11049 0.87929-2.7621 0.98753-0.88229 1.3402 1.2803-0.38723 4.0398 0.70932 4.3158-0.58078-2.062 0.40456-1.8835-1.7765-1.836-3.1322-0.55626-2.0895 1.1008-1.2824 2.5819-1.4808 2.6451-0.15905 4.3086-3.916 2.133-5.6927-2.2178-1.5905-5.0329-0.45318-7.5317-0.7756-1.3207 0.83899 2.2556 0.40213 1.2868 2.2253zm9.7872 7.218c0.85674 1.6221-3.0139 2.0698-0.32175 2.2072 1.6245 0.11353 4.4399 0.0678 1.8643-1.0467-0.25619-3.1328-0.0581-6.3079-0.12055-9.4586 0.077-1.1611 0.37665-2.7441-1.3208-1.7798-1.4362-0.0778-1.7378 0.74872-0.28575 0.9945 0.3695 2.0352 0.10384 4.1653 0.1845 6.2431v2.8401zm6.9421 2.376c1.4278 0.13512 2.8602-2.2239 3.0758 0.0405 1.0197-0.59919 3.66-0.92789 1.1992-1.6065-0.44725-1.3977-0.12887-2.9452-0.225-4.41 0.28347-1.4276 0.15999-2.4928-1.6065-1.9372-2.4511-5e-3 0.98665 0.94503 0.1845 2.4348-0.0273 1.1542 0.0582 2.3155-0.0495 3.4648-1.2795 2.0958-4.1875 0.88448-3.4785-1.5013-0.017-1.4619 0.0205-2.9444 0.0337-4.3892-1.1081-0.185-3.9605 0.0235-1.6898 0.8685 0.59893 1.894-0.14249 4.0078 0.49883 5.9081 0.34671 0.79703 1.235 1.1504 2.0572 1.1276zm11.398-5.202c0.30658 3.2471-4.3253 1.9196-3.1647-0.85775 0.17814-2.5948 3.6991-1.3692 3.1647 0.85775zm-3.366 5.202c1.7822-0.255 7.043 0.15945 4.2183 2.8016-1.6554 1.1873-5.405 0.7806-4.693-1.9488l0.16734-0.40866zm5.616-7.146c1.9855-1.5372-1.5976-1.3963-2.1963-0.5715-1.9272-1.1053-5.0553 0.27108-4.6962 2.7173 0.36861 1.2593 1.2155 1.7909 0.17733 3.0067-0.18206 1.4939 1.3568 1.9076-0.32737 2.8822-1.6837 3.345 3.5186 3.906 5.5549 2.5766 2.938-0.7222 2.2073-4.9857-0.83555-4.5155-1.4589 0.20621-4.4804 0.30969-3.1669-1.9558 1.9076 1.1425 5.0294-0.23477 4.6682-2.6772-0.25335-0.79341-1.2074-2.4493 0.31785-1.7868l0.20475 0.216zm2.628-3.816c0.57362 2.5662 3.1855-1.0763 0.6075-0.78975-0.3094 0.14205-0.59498 0.42854-0.6075 0.78975zm1.638 8.586c-0.0183-1.9053 0.0265-3.8524 9e-3 -5.724-1.0273 0.14632-3.9805 0.62661-1.6515 1.2578 0.43954 1.4141 0.12532 2.9831 0.2205 4.4662 0.85011 1.5986-3.0032 2.0716-0.33525 2.2072 1.6181 0.11491 4.4646 0.0699 1.8778-1.0514-0.13219-0.36976-0.10869-0.77102-0.12055-1.1558zm4.9407-4.248c-0.51284-3e-4 0.0657-2.4538-1.4062-1.2375-1.231-0.0243-1.9205 0.77364-0.39825 1.0058 0.43845 1.4195 0.12602 2.9919 0.2205 4.4798 0.85618 1.5654-2.92 2.0762-0.3375 2.2072 1.1236 0.13208 4.3268 0.054 1.9642-0.8685-0.37731-1.385-0.13574-2.8619-0.20475-4.2908 0.34985-2.211 4.3778-2.4832 3.672 0.35183-0.11108 1.3513 0.28351 2.8614-0.35157 4.0695-2.3549 1.0308 2.0287 0.69137 2.9796 0.76265-0.0297-0.84045-1.8384-0.97832-1.206-2.5037-0.14783-1.694 0.46222-3.7065-0.75994-5.085-1.393-0.84837-3.2388-0.0739-4.1721 1.1087z" style="font-feature-settings:normal;font-variant-caps:normal;font-variant-ligatures:normal;font-variant-numeric:normal"/>
 </g>
 <g id="g922" transform="translate(10.377 -2.4053)">
  <rect id="rect886" x="452.42" y="330.61" width="60" height="31.824" color="#000000" fill="#3bb9c0" fill-rule="evenodd"/>
  <text id="text890" x="482.44482" y="344.20755" fill="#000000" font-family="'Linux Libertine O'" font-size="9px" letter-spacing="0px" stroke-width=".75px" text-align="center" text-anchor="middle" word-spacing="0px" style="font-feature-settings:normal;font-variant-caps:normal;font-variant-ligatures:normal;font-variant-numeric:normal;line-height:18.75px" xml:space="preserve"><tspan id="tspan905" x="482.44482" y="344.20755" font-family="'Linux Libertine O'" font-size="9px" stroke-width=".75px" text-align="center" text-anchor="middle" style="font-feature-settings:normal;font-variant-caps:normal;font-variant-ligatures:normal;font-variant-numeric:normal">NRPE Client</tspan></text>
  <text id="text911" x="482.43048" y="353.81372" fill="#000000" font-family="'Linux Libertine O'" font-size="9px" letter-spacing="0px" stroke-width=".75px" text-align="center" text-anchor="middle" word-spacing="0px" style="font-feature-settings:normal;font-variant-caps:normal;font-variant-ligatures:normal;font-variant-numeric:normal;line-height:18.75px" xml:space="preserve"><tspan id="tspan909" x="482.43048" y="353.81372" font-family="'Linux Libertine O'" font-size="9px" stroke-width=".75px" text-align="center" text-anchor="middle" style="font-feature-settings:normal;font-variant-caps:normal;font-variant-ligatures:normal;font-variant-numeric:normal">Plugin</tspan></text>
 </g>
 <g id="g930" transform="translate(-219.15 1.5809)">
  <rect id="rect924" x="400.99" y="120.37" width="60" height="31.824" color="#000000" fill="#3bb9c0" fill-rule="evenodd"/>
  <text id="text928" x="430.07367" y="139.92377" fill="#000000" font-family="'Linux Libertine O'" font-size="18px" letter-spacing="0px" stroke-width=".75px" text-align="center" text-anchor="middle" word-spacing="0px" style="font-feature-settings:normal;font-variant-caps:normal;font-variant-ligatures:normal;font-variant-numeric:normal;line-height:18.75px" xml:space="preserve"><tspan id="tspan926" x="430.07367" y="139.92377" font-family="'Linux Libertine O'" font-size="18px" stroke-width=".75px" text-align="center" text-anchor="middle" style="font-feature-settings:normal;font-variant-caps:normal;font-variant-ligatures:normal;font-variant-numeric:normal">Plugin</tspan></text>
 </g>
 <g id="g938" transform="translate(-219.15 53.144)">
  <rect id="rect932" x="400.99" y="120.37" width="60" height="31.824" color="#000000" fill="#3bb9c0" fill-rule="evenodd"/>
  <text id="text936" x="430.07367" y="139.92377" fill="#000000" font-family="'Linux Libertine O'" font-size="18px" letter-spacing="0px" stroke-width=".75px" text-align="center" text-anchor="middle" word-spacing="0px" style="font-feature-settings:normal;font-variant-caps:normal;font-variant-ligatures:normal;font-variant-numeric:normal;line-height:18.75px" xml:space="preserve"><tspan id="tspan934" x="430.07367" y="139.92377" font-family="'Linux Libertine O'" font-size="18px" stroke-width=".75px" text-align="center" text-anchor="middle" style="font-feature-settings:normal;font-variant-caps:normal;font-variant-ligatures:normal;font-variant-numeric:normal">Plugin</tspan></text>
 </g>
 <g id="g946" transform="translate(-219.15 104.71)">
  <rect id="rect940" x="400.99" y="120.37" width="60" height="31.824" color="#000000" fill="#3bb9c0" fill-rule="evenodd"/>
  <text id="text944" x="430.07367" y="139.92377" fill="#000000" font-family="'Linux Libertine O'" font-size="18px" letter-spacing="0px" stroke-width=".75px" text-align="center" text-anchor="middle" word-spacing="0px" style="font-feature-settings:normal;font-variant-caps:normal;font-variant-ligatures:normal;font-variant-numeric:normal;line-height:18.75px" xml:space="preserve"><tspan id="tspan942" x="430.07367" y="139.92377" font-family="'Linux Libertine O'" font-size="18px" stroke-width=".75px" text-align="center" text-anchor="middle" style="font-feature-settings:normal;font-variant-caps:normal;font-variant-ligatures:normal;font-variant-numeric:normal">Plugin</tspan></text>
 </g>
 <g id="g954" transform="translate(-219.15 156.27)">
  <rect id="rect948" x="400.99" y="120.37" width="60" height="31.824" color="#000000" fill="#3bb9c0" fill-rule="evenodd"/>
  <text id="text952" x="430.07367" y="139.92377" fill="#000000" font-family="'Linux Libertine O'" font-size="18px" letter-spacing="0px" stroke-width=".75px" text-align="center" text-anchor="middle" word-spacing="0px" style="font-feature-settings:normal;font-variant-caps:normal;font-variant-ligatures:normal;font-variant-numeric:normal;line-height:18.75px" xml:space="preserve"><tspan id="tspan950" x="430.07367" y="139.92377" font-family="'Linux Libertine O'" font-size="18px" stroke-width=".75px" text-align="center" text-anchor="middle" style="font-feature-settings:normal;font-variant-caps:normal;font-variant-ligatures:normal;font-variant-numeric:normal">Plugin</tspan></text>
 </g>
 <g id="g962" transform="translate(-219.15 259.4)">
  <rect id="rect956" x="400.99" y="120.37" width="60" height="31.824" color="#000000" fill="#3bb9c0" fill-rule="evenodd"/>
  <text id="text960" x="430.07367" y="139.92377" fill="#000000" font-family="'Linux Libertine O'" font-size="18px" letter-spacing="0px" stroke-width=".75px" text-align="center" text-anchor="middle" word-spacing="0px" style="font-feature-settings:normal;font-variant-caps:normal;font-variant-ligatures:normal;font-variant-numeric:normal;line-height:18.75px" xml:space="preserve"><tspan id="tspan958" x="430.07367" y="139.92377" font-family="'Linux Libertine O'" font-size="18px" stroke-width=".75px" text-align="center" text-anchor="middle" style="font-feature-settings:normal;font-variant-caps:normal;font-variant-ligatures:normal;font-variant-numeric:normal">Plugin</tspan></text>
 </g>
 <g id="g982" transform="translate(-219.15 207.83)">
  <rect id="rect976" x="400.99" y="120.37" width="60" height="31.824" color="#000000" fill="#3bb9c0" fill-rule="evenodd"/>
  <text id="text980" x="430.07367" y="139.92377" fill="#000000" font-family="'Linux Libertine O'" font-size="18px" letter-spacing="0px" stroke-width=".75px" text-align="center" text-anchor="middle" word-spacing="0px" style="font-feature-settings:normal;font-variant-caps:normal;font-variant-ligatures:normal;font-variant-numeric:normal;line-height:18.75px" xml:space="preserve"><tspan id="tspan978" x="430.07367" y="139.92377" font-family="'Linux Libertine O'" font-size="18px" stroke-width=".75px" text-align="center" text-anchor="middle" style="font-feature-settings:normal;font-variant-caps:normal;font-variant-ligatures:normal;font-variant-numeric:normal">Plugin</tspan></text>
 </g>
 <path id="path893" d="m234.54 395.68h39.664" fill="none" stroke="#3bb9c0" stroke-width="4"/>
 <path id="path895" d="m234.84 343.99h39.664" fill="none" stroke="#3bb9c0" stroke-width="4"/>
 <path id="path897" d="m233.34 292.3h39.664" fill="none" stroke="#3bb9c0" stroke-width="4"/>
 <path id="path899" d="m233.64 240.6h39.664" fill="none" stroke="#3bb9c0" stroke-width="4"/>
 <path id="path901" d="m233.94 188.91h39.664" fill="none" stroke="#3bb9c0" stroke-width="4"/>
 <path id="path903" d="m234.24 137.21h39.664" fill="none" stroke="#3bb9c0" stroke-width="4"/>
 <path id="path905" d="m307.87 481.7h102.47v-136.78h60.816" fill="none" stroke="#3bb9c0" stroke-width="4"/>
</svg>
